HIERARCHY
ROOT hip
{
	OFFSET 0.000000 0.000000 0.000000 
	CHANNELS 6 Xposition Yposition Zposition Xrotation Zrotation Yrotation
	JOINT abdomen
	{
		OFFSET 0.000000 3.402643 0.000000 
		CHANNELS 3 Xrotation Zrotation Yrotation
		JOINT chest
		{
			OFFSET 0.000000 8.438565 -0.680529 
			CHANNELS 3 Xrotation Zrotation Yrotation
			JOINT neck
			{
				OFFSET 0.000000 10.207942 -0.272212 
				CHANNELS 3 Xrotation Zrotation Yrotation
				JOINT head
				{
					OFFSET 0.000000 3.130431 0.000000 
					CHANNELS 3 Xrotation Zrotation Yrotation
					End Site
					{
						OFFSET 0.000000 3.130435 0.000000 
					}
				}
			}
			JOINT lCollar
			{
				OFFSET 3.470700 6.669187 -0.816635 
				CHANNELS 3 Yrotation Zrotation Xrotation
				JOINT lShldr
				{
					OFFSET 3.198488 0.000000 0.000000 
					CHANNELS 3 Zrotation Yrotation Xrotation
					JOINT lForeArm
					{
						OFFSET 10.139888 0.000000 0.000000 
						CHANNELS 3 Yrotation Zrotation Xrotation
						JOINT lHand
						{
							OFFSET 8.370511 0.000000 0.000000 
							CHANNELS 3 Zrotation Yrotation Xrotation
							End Site
							{
								OFFSET 4.083176 0.000000 0.000000 
							}
						}
					}
				}
			}
			JOINT rCollar
			{
				OFFSET -3.470700 6.669187 -0.816635 
				CHANNELS 3 Yrotation Zrotation Xrotation
				JOINT rShldr
				{
					OFFSET -3.198488 0.000000 0.000000 
					CHANNELS 3 Zrotation Yrotation Xrotation
					JOINT rForeArm
					{
						OFFSET -10.139888 0.000000 0.000000 
						CHANNELS 3 Yrotation Zrotation Xrotation
						JOINT rHand
						{
							OFFSET -8.370511 0.000000 0.000000 
							CHANNELS 3 Zrotation Yrotation Xrotation
							End Site
							{
								OFFSET -4.083176 0.000000 0.000000 
							}
						}
					}
				}
			}
		}
	}
	JOINT lThigh
	{
		OFFSET 5.308129 -1.633274 1.361059 
		CHANNELS 3 Xrotation Zrotation Yrotation
		JOINT lShin
		{
			OFFSET -2.041588 -20.007561 0.000000 
			CHANNELS 3 Xrotation Zrotation Yrotation
			JOINT lFoot
			{
				OFFSET 0.000000 -19.190928 -1.224953 
				CHANNELS 3 Xrotation Yrotation Zrotation
				End Site
				{
					OFFSET 0.000000 -2.449906 4.627600 
				}
			}
		}
	}
	JOINT rThigh
	{
		OFFSET -5.308129 -1.633274 1.361059 
		CHANNELS 3 Xrotation Zrotation Yrotation
		JOINT rShin
		{
			OFFSET 2.041588 -20.007561 0.000000 
			CHANNELS 3 Xrotation Zrotation Yrotation
			JOINT rFoot
			{
				OFFSET 0.000000 -19.190928 -1.224953 
				CHANNELS 3 Xrotation Yrotation Zrotation
				End Site
				{
					OFFSET 0.000000 -2.449906 4.627600 
				}
			}
		}
	}
}
MOTION
Frames: 16
Frame Time: 0.033333
-3.443913 43.444271 -24.348801 4.218750 -8.437396 52.010635 24.863279 6.113281 0.273437 -7.392578 -1.777344 -1.709287 -13.623047 0.615234 -22.714842 2.011719 4.833984 -23.046877 1.201172 5.009766 0.234375 -78.193359 -32.207031 52.934246 -62.666016 -1.855469 -4.980469 3.359375 0.019531 -0.156247 -4.033203 2.910156 -0.166511 63.876953 22.021484 14.368897 79.550781 3.339844 -39.199787 -19.765623 21.503908 -6.988607 -21.815741 29.332729 22.909206 45.418888 -0.635576 -2.927386 -17.393890 -4.780824 -8.658676 -42.503918 -18.091885 -11.733769 53.526554 -0.371059 2.660611 -9.255486 5.476592 7.787743 
-3.456754 43.436447 -24.315535 4.218750 -8.437396 52.010635 24.863279 6.113281 0.273437 -7.392579 -1.601563 -1.708984 -13.623047 0.615234 -22.714842 2.011719 4.833984 -23.046877 1.201172 5.009766 0.234375 -78.193359 -32.207031 52.934246 -62.675781 -1.777344 -5.224609 3.183594 0.195313 -0.146450 -4.033203 2.734375 -0.175781 64.003906 21.992188 14.310300 79.414063 3.271484 -39.229073 -19.355467 21.591795 -6.822578 -21.815741 29.332729 22.909206 45.243229 -0.635552 -2.918545 -17.620665 -4.640664 -8.784552 -42.688198 -18.091038 -11.723355 53.526554 -0.371065 2.660608 -9.123723 5.477100 8.175805 
-3.464342 43.430965 -24.288568 4.384766 -8.447267 51.826172 24.687500 5.937500 0.225620 -7.392578 -1.425781 -1.709227 -13.632812 0.439453 -22.548752 2.011719 4.833984 -22.871096 1.201172 5.009766 0.234375 -78.427734 -32.099609 52.802734 -62.705078 -1.943359 -5.536778 2.832031 0.371094 -0.117188 -4.033203 2.558594 -0.195748 64.130859 22.167971 14.365235 79.140625 3.320313 -39.257813 -19.082031 21.318361 -6.598011 -21.950912 29.024298 22.791765 45.067139 -0.742803 -2.932428 -17.258396 -4.576897 -8.732518 -42.885071 -18.111601 -11.715447 53.701458 -0.371249 2.687416 -9.252340 5.378542 7.977730 
-3.475431 43.421158 -24.254013 4.384766 -8.447267 51.826172 24.687500 5.937500 0.225620 -7.392579 -1.601563 -1.708984 -13.818360 0.439453 -22.373047 2.011719 4.833984 -22.695313 1.376953 5.185547 0.214844 -78.427734 -32.099609 52.802734 -62.714844 -1.865235 -5.771484 2.480469 0.722656 -0.097531 -4.218750 2.382813 -0.195312 64.472656 22.333982 14.501953 79.140625 3.320313 -39.257813 -18.964844 20.849609 -6.373476 -21.611404 29.052633 22.866816 45.253223 -0.610256 -2.909078 -17.603548 -4.758304 -8.661627 -42.885071 -18.111607 -11.715446 53.881119 -0.205040 2.949897 -9.413020 5.474878 8.013908 
-3.494693 43.405396 -24.225182 4.570313 -8.447267 51.648956 24.677734 5.771485 0.186529 -7.392578 -1.425781 -1.709227 -13.828126 0.263672 -22.197250 2.011719 5.009765 -22.519531 1.201172 5.009766 0.234375 -78.447266 -32.080082 52.631531 -62.900394 -1.923828 -5.927735 2.304688 1.074219 -0.087708 -4.218750 2.031250 -0.224609 64.736328 22.490234 14.570312 79.003906 3.261719 -39.287109 -18.671877 20.390625 -6.210938 -21.950914 29.024294 22.791763 45.067139 -0.742805 -2.932429 -17.215696 -4.258546 -8.561289 -43.013531 -18.269083 -11.621884 53.854759 -0.195337 3.137355 -9.287251 5.202742 8.262940 
-3.511269 43.389992 -24.192026 4.570313 -8.447267 51.648956 24.677734 5.644532 -0.028336 -7.392578 -1.074219 -1.709173 -13.837891 -0.087891 -22.021482 2.001953 5.185547 -22.342867 1.220703 4.658203 0.068359 -78.281250 -31.972658 52.533886 -62.890625 -1.845703 -5.771485 2.128906 1.250000 -0.077912 -4.218750 1.513672 -0.253906 64.990234 22.636719 14.570312 78.935547 3.193359 -38.945316 -18.398439 20.107424 -5.986328 -21.600578 29.038826 23.059637 45.067188 -0.599304 -2.914861 -17.392433 -4.720071 -8.833773 -43.113350 -18.035936 -11.659775 54.047028 -0.195227 2.962081 -9.733990 5.349717 7.968071 
-3.536134 43.372013 -24.145918 4.746094 -8.447267 51.668488 24.677734 5.644532 -0.028336 -7.382812 -0.722656 -1.709107 -14.023438 -0.449219 -21.855469 2.001953 5.361328 -22.167971 1.220703 4.306641 0.077392 -78.281250 -31.972658 52.533886 -63.037106 -1.826172 -5.380548 2.304688 1.074219 -0.087708 -4.394531 1.142578 -0.107422 65.078125 22.646486 14.707031 78.935547 3.369140 -38.916012 -18.652344 19.199219 -5.992881 -21.600571 29.038826 23.059637 45.067188 -0.599309 -2.914862 -17.427671 -4.723796 -8.639845 -43.305855 -18.053743 -11.468876 54.215755 -0.351589 3.057888 -9.729613 5.419039 7.829109 
-3.563684 43.357071 -24.101322 4.746094 -8.447267 51.668488 24.677734 5.644532 -0.028336 -7.558594 -0.722656 -1.708984 -13.857422 -0.625000 -21.679792 2.001953 5.537109 -22.167971 1.220703 4.130859 0.078125 -78.173828 -31.669924 52.294922 -63.027340 -1.904297 -5.146160 1.962891 0.195313 -0.068324 -4.218750 0.791016 -0.136719 65.322266 22.470703 14.765624 79.042969 3.398438 -38.701752 -19.521484 17.753906 -5.810547 -21.611410 29.052633 22.866814 45.077930 -0.610037 -2.890535 -17.104057 -4.526633 -8.681728 -43.305691 -18.043844 -11.635281 54.381214 -0.361289 3.069952 -9.704494 5.399704 7.989810 
-3.581777 43.343296 -24.045757 4.746094 -8.447267 51.668488 24.677734 5.644532 -0.028336 -7.558594 -0.546875 -1.708987 -13.857421 -0.800781 -21.679825 2.001953 5.712890 -21.992186 1.044922 3.955078 0.097656 -78.007813 -31.562498 52.201923 -62.988285 -1.826172 -4.589844 1.962891 -0.332031 -0.068416 -4.218750 0.615234 -0.146484 65.517578 22.246094 14.574008 79.277344 3.320313 -38.515629 -19.433596 17.460936 -5.595703 -21.453905 29.135672 22.932016 45.067192 -0.599290 -2.914855 -17.058994 -4.623257 -8.743243 -43.305691 -18.043844 -11.635279 54.574314 -0.185468 2.980886 -9.687160 5.473654 7.840650 
-3.607809 43.327648 -23.987160 4.746094 -8.271485 51.668518 24.853516 5.644531 -0.028336 -7.568359 -0.898438 -1.709138 -13.867188 -0.625000 -21.504013 2.177735 5.712891 -21.981449 1.044922 4.130859 0.087891 -77.841805 -31.455076 52.119141 -63.144531 -1.806641 -4.199220 2.314453 -0.156250 -0.087917 -4.042969 0.791016 -0.136853 65.468750 22.080078 14.570312 79.687500 3.164063 -38.486874 -18.994141 17.021484 -5.419921 -21.453909 29.135660 22.932020 44.891624 -0.589444 -2.902264 -17.303776 -4.556242 -8.524827 -43.305695 -18.043840 -11.635281 54.749584 -0.185487 2.998462 -9.926248 5.456240 7.840271 
-3.634308 43.318314 -23.918402 4.570313 -8.271485 51.648983 25.029297 5.644531 -0.029297 -7.392578 -0.898438 -1.709138 -14.042968 -0.625000 -21.504013 2.353515 5.712891 -21.972656 1.044922 3.955078 0.097656 -77.841805 -31.455076 52.119141 -63.115238 -1.806641 -3.808594 2.314453 0.546875 -0.087891 -4.042969 0.966797 -0.127118 65.224609 22.255861 14.505653 79.589844 3.300781 -38.652905 -18.339846 16.816408 -5.029296 -21.082821 29.038406 22.466042 44.562920 -0.901764 -2.822933 -16.903044 -4.246389 -8.322673 -43.305695 -18.043842 -11.635282 54.925941 -0.185532 2.987066 -10.077250 5.482972 8.058331 
-3.662675 43.300220 -23.846729 4.570313 -8.095704 51.649014 25.029299 5.605469 0.137673 -7.392578 -1.074219 -1.709173 -14.042968 -0.097656 -21.503922 2.353515 5.537109 -21.972656 1.044922 4.306641 0.087891 -78.027344 -31.533207 52.026146 -62.753906 -1.748047 -3.642578 2.314453 0.546875 -0.087891 -3.867188 1.318359 -0.107422 65.126953 22.031250 14.183352 79.208984 3.320313 -38.877518 -17.753906 16.738281 -4.794922 -21.433554 29.249992 22.190126 44.729000 -0.589343 -3.068747 -17.101145 -4.113414 -8.461291 -43.345482 -17.897697 -11.708474 55.091084 -0.185545 3.013883 -10.189901 5.415895 7.841012 
-3.690692 43.280724 -23.770382 4.570313 -7.919922 51.649048 25.205078 5.605469 0.137673 -7.216797 -1.250000 -1.523438 -14.033203 0.078125 -21.669916 2.353516 5.361291 -21.971884 1.220703 4.306641 0.077392 -78.027344 -31.533207 52.026146 -62.753906 -1.748047 -3.642578 2.138672 0.371094 -0.078060 -4.042969 1.679688 -0.253906 65.039063 22.138672 13.851336 79.072266 3.261719 -38.906807 -17.382811 16.591799 -4.782367 -20.906872 29.232557 21.767260 44.540253 -0.732840 -2.901601 -17.192102 -3.952377 -8.167027 -43.337463 -17.879522 -11.879188 55.276470 -0.185385 3.022372 -10.120230 5.491583 7.861621 
-3.727229 43.260643 -23.706059 4.570313 -7.919922 51.649048 25.205078 5.605469 0.137673 -7.216797 -1.250000 -1.523438 -14.033203 0.253906 -21.669907 2.529297 5.537110 -21.786163 1.220703 4.482422 0.068359 -77.900391 -31.259764 52.060543 -62.929688 -1.738281 -3.652344 2.314453 0.195313 -0.087891 -3.867188 1.855469 -0.244141 64.873047 21.904295 13.460674 78.867188 3.369141 -39.277920 -16.582031 16.562502 -4.421042 -20.907616 29.040649 21.624886 44.553978 -0.598956 -3.044408 -17.312847 -3.657613 -8.031097 -43.337463 -17.879526 -11.879188 55.452099 -0.185416 3.030334 -10.240000 5.264496 7.965504 
-3.763416 43.237183 -23.631468 4.570313 -7.744141 51.649078 25.371094 5.429688 0.098580 -7.041016 -1.259766 -1.523437 -14.218750 0.429688 -21.494068 2.529297 5.537110 -21.786163 1.220703 4.482422 0.068359 -78.007813 -31.562498 52.201923 -62.587891 -1.835938 -3.808593 2.490234 -0.332031 -0.107478 -3.691406 2.031250 -0.244487 64.658203 21.708984 13.196973 78.769531 3.349610 -39.492760 -16.240234 16.757813 -4.414062 -20.750189 29.133833 21.674858 44.361729 -0.599299 -3.219128 -17.119349 -3.454076 -8.303199 -43.337467 -17.879520 -11.879189 55.808998 -0.380982 2.773618 -10.693202 5.781074 8.273609 
-3.797154 43.212906 -23.562828 4.570313 -7.744141 51.649078 25.371094 5.429688 0.098580 -6.865234 -1.083984 -1.699219 -14.218750 0.429688 -21.494068 2.529297 5.712891 -21.610353 1.220703 4.482422 0.068359 -78.027344 -31.533207 52.026146 -62.587891 -1.835938 -3.808593 2.666016 -0.156250 -0.117214 -3.867188 2.207031 -0.224609 64.462891 22.060547 13.125001 78.876953 3.271484 -40.029297 -16.083984 16.953125 -4.401448 -20.555424 29.067612 21.528572 44.352058 -0.589438 -3.214847 -17.190186 -3.236714 -8.373591 -43.405468 -18.094078 -12.347772 55.946434 -0.683681 3.322810 -10.779132 5.394514 8.091289 
